<?xml version="1.0" encoding="UTF-8"?>
<svg id="Layer_2" data-name="Layer 2" xmlns="http://www.w3.org/2000/svg" viewBox="0 0 919.31 966.39" fill="#000000">
  <g id="Layer_1-2" data-name="Layer 1">
    <g>
      <path d="M584.48,515.51l103.53-22.08v272.8c0,25.77-8.62,49.55-23.13,68.58-20.69,27.15-53.35,44.66-90.12,44.66-7.84,0-15.48-.8-22.87-2.32,20.16-30.59,32.08-67.1,32.58-106.37,.02-.85,.02-1.71,.02-2.56s0-1.71-.02-2.56v-250.14Z"/>
      <path d="M791.52,440.45c-.1,.02-.21,.05-.3,.06-.3,.06-.61,.13-.91,.19-23.17,5.03-298.52,64.86-298.52,64.86v205.42c.72,25.18-.85,89.95-43.59,153.13-25.4,37.53-55.71,60.27-75.72,72.81-55.08,28.32-101.38,30.26-125.58,29.28-16.99,.71-100.32,2.36-169.67-60.39,0,0-65.18-58.98-75.84-144.62-.93-7.34-1.23-14.5-1.23-14.5-.18-4.33-.18-8.11-.11-11.19,11.94,29.18,26.86,50.16,37.93,63.53,29.44,35.56,67.07,60.16,97.47,69.78,18.51,5.88,38.24,9.04,58.7,9.04,.38,0,.79,0,1.17-.02,106.65-.63,192.94-63.9,192.94-170.73v-179.06l-49.01,10.66c-.13,.03-.3,.06-.43,.1-1.19,.26-2.39,.53-3.57,.82-71.83,16.64-129.78,62.04-164.2,121.35,2.4-87.86,64.25-166.08,153.98-185.58l63.24-13.75v-190.34l-172.23,37.6-88.8,19.39s-.08,0-.11,.02c-.05,.02-.1,.02-.14,.03-47.47,10.43-80.16,51.83-81.49,98.34-9.41-11.96-16.33-26.17-19.79-42.04-7.24-33.17,2.26-66.11,22.85-89.99,14.14-16.39,33.51-28.53,56.28-33.53,.05-.02,.1-.02,.14-.03,.03,0,.06-.02,.1-.02l283.2-61.83,103.53-22.5,53.74-11.6c-8.76,4.44-31.75,17.62-44.85,45.29-6.48,13.69-8.38,26.38-8.89,35.11v193.61c30.9-6.68,61.8-13.38,92.71-20.08V156.67c0-81.7,62.2-148.85,141.85-156.67-17.47,28-29.63,59.65-35.08,93.56-2.13,13.22-3.24,26.8-3.24,40.61V396.52s78.86-17.15,86.25-18.75c.1-.02,.21-.05,.3-.06,.32-.06,.66-.14,.98-.21,80.11-17.53,130.85-96.67,113.32-176.78-1.71-7.8-4.01-15.32-6.81-22.53,15.98,19.31,27.73,42.63,33.45,68.82,19.18,87.66-36.33,174.27-123.99,193.45Z"/>
    </g>
  </g>
</svg>